<?xml version="1.0" encoding="UTF-8"?>
<svg width="222px" height="185px" viewBox="0 0 222 185" version="1.1" xmlns="http://www.w3.org/2000/svg" xmlns:xlink="http://www.w3.org/1999/xlink">
    <!-- Generator: Sketch 48.2 (47327) - http://www.bohemiancoding.com/sketch -->
    <title>Graphic5-AutoML@3x</title>
    <desc>Created with Sketch.</desc>
    <defs>
        <path d="M4.91060959,0.284342466 C2.39106164,0.284342466 0.348965753,2.32719863 0.348965753,4.8459863 L0.348965753,178.413493 C0.348965753,180.933041 2.39106164,182.975137 4.91060959,182.975137 L91.4480342,182.975137 C93.9675822,182.975137 96.0096781,180.933041 96.0096781,178.413493 L96.0096781,4.8459863 C96.0096781,2.32719863 93.9675822,0.284342466 91.4480342,0.284342466 L4.91060959,0.284342466 Z M4.91060959,178.413493 L91.4480342,178.413493 L91.4480342,4.8459863 L4.91060959,4.8459863 L4.91060959,178.413493 Z" id="path-1"></path>
        <path d="M3.42731507,0.213636986 C1.53499315,0.213636986 0,1.57528767 0,3.25549315 L0,27.7385959 C0,29.4172808 1.53499315,30.7789315 3.42731507,30.7789315 L125.509829,30.7789315 C127.403671,30.7789315 128.937904,29.4172808 128.937904,27.7385959 L128.937904,3.25549315 C128.937904,1.57528767 127.403671,0.213636986 125.509829,0.213636986 L3.42731507,0.213636986 Z" id="path-3"></path>
        <path d="M0.00684246575,14.732589 L0.00684246575,22.1437397 C0.00684246575,29.9661986 6.28366438,36.3699863 14.1076438,36.446774 C17.1342945,36.4764247 20.0218151,35.5557329 22.3383699,33.9629589 C26.0120137,31.4373288 28.4836644,27.220089 28.4836644,22.422 L28.4836644,15.0116096 C28.4836644,7.18915068 22.2106438,0.786883562 14.3836233,0.71009589 C14.335726,0.709335616 14.2893493,0.709335616 14.2422123,0.709335616 C6.48285616,0.71009589 0.00684246575,6.95878767 0.00684246575,14.732589" id="path-5"></path>
        <path d="M0.00684246575,14.732589 L0.00684246575,22.1437397 C0.00684246575,29.9661986 6.28366438,36.3699863 14.1076438,36.446774 C17.1342945,36.4764247 20.0218151,35.5557329 22.3383699,33.9629589 C26.0120137,31.4373288 28.4836644,27.220089 28.4836644,22.422 L28.4836644,15.0116096 C28.4836644,7.18915068 22.2106438,0.786883562 14.3836233,0.71009589 C14.335726,0.709335616 14.2893493,0.709335616 14.2422123,0.709335616 C6.48285616,0.71009589 0.00684246575,6.95878767 0.00684246575,14.732589 Z" id="path-7"></path>
        <path d="M0.00684246575,14.732589 L0.00684246575,22.1437397 C0.00684246575,29.9661986 6.28366438,36.3699863 14.1076438,36.446774 C17.1342945,36.4764247 20.0218151,35.5557329 22.3383699,33.9629589 C26.0120137,31.4373288 28.4836644,27.220089 28.4836644,22.422 L28.4836644,15.0116096 C28.4836644,7.18915068 22.2106438,0.786883562 14.3836233,0.71009589 C14.335726,0.709335616 14.2893493,0.709335616 14.2422123,0.709335616 C6.48285616,0.71009589 0.00684246575,6.95878767 0.00684246575,14.732589 Z" id="path-9"></path>
        <path d="M0.164219178,6.04873973 L0.164219178,23.5228767 C0.164219178,23.5228767 5.56520548,35.3489384 5.56520548,35.0425479 C5.70357534,35.195363 10.9661918,23.5228767 10.9661918,23.5228767 L10.9661918,6.04873973 C10.9661918,2.79780822 8.49378082,0.161938356 5.56520548,0.161938356 C2.63663014,0.161938356 0.164219178,2.79780822 0.164219178,6.04873973 Z" id="path-11"></path>
        <path d="M2.88143836,3.85610959 L0.0190068493,1.56388356 C1.52815068,4.83686301 3.28438356,8.60782192 3.28438356,8.4329589 C3.37181507,8.5295137 5.4914589,3.93441781 7.0485,0.519267123" id="path-13"></path>
        <path d="M2.88143836,3.85610959 L0.0190068493,1.56388356 C1.52815068,4.83686301 3.28438356,8.60782192 3.28438356,8.4329589 C3.37181507,8.5295137 5.4914589,3.93441781 7.0485,0.519267123 L2.88143836,3.85610959 Z" id="path-15"></path>
    </defs>
    <g id="Cloud-AutoML-Mock" stroke="none" stroke-width="1" fill="none" fill-rule="evenodd" transform="translate(-841.000000, -1636.000000)">
        <g id="Graphic5-AutoML" transform="translate(841.000000, 1636.000000)">
            <g id="Group-3" transform="translate(125.445205, 0.938178)">
                <mask id="mask-2" fill="white">
                    <use xlink:href="#path-1"></use>
                </mask>
                <g id="Clip-2"></g>
                <path d="M4.91060959,0.284342466 C2.39106164,0.284342466 0.348965753,2.32719863 0.348965753,4.8459863 L0.348965753,178.413493 C0.348965753,180.933041 2.39106164,182.975137 4.91060959,182.975137 L91.4480342,182.975137 C93.9675822,182.975137 96.0096781,180.933041 96.0096781,178.413493 L96.0096781,4.8459863 C96.0096781,2.32719863 93.9675822,0.284342466 91.4480342,0.284342466 L4.91060959,0.284342466 Z M4.91060959,178.413493 L91.4480342,178.413493 L91.4480342,4.8459863 L4.91060959,4.8459863 L4.91060959,178.413493 Z" id="Fill-1" fill="#448AFF" mask="url(#mask-2)"></path>
            </g>
            <g id="Group-30" transform="translate(0.000000, 0.177904)">
                <path d="M3.04109589,31.1476644 L102.234801,31.1476644 C103.914247,31.1476644 105.275897,29.7860137 105.275897,28.1065685 L105.275897,3.62346575 C105.275897,1.94402055 103.914247,0.582369863 102.234801,0.582369863 L3.04109589,0.582369863 C1.36165068,0.582369863 0,1.94402055 0,3.62346575 L0,28.1065685 C0,29.7860137 1.36165068,31.1476644 3.04109589,31.1476644" id="Fill-4" fill="#E7E7E7"></path>
                <polygon id="Fill-6" fill="#444444" points="12.6449527 11.1016726 15.8046514 19.4973781 18.9567473 11.1016726 21.4169938 11.1016726 21.4169938 22.0557 19.5208705 22.0557 19.5208705 18.4443986 19.7094185 13.6143781 16.4744527 22.0557 15.1128021 22.0557 11.8846788 13.6219808 12.0732267 18.4443986 12.0732267 22.0557 10.1771034 22.0557 10.1771034 11.1016726"></polygon>
                <path d="M26.3907822,20.7387534 C26.7519123,20.7387534 27.0917548,20.6513219 27.4103096,20.4756986 C27.7288644,20.3000753 27.9683507,20.0643904 28.1287685,19.7686438 L28.1287685,18.2336507 L27.1434534,18.2336507 C26.4660493,18.2336507 25.9566658,18.3514932 25.616063,18.5871781 C25.2747,18.822863 25.1043986,19.1566233 25.1043986,19.5876986 C25.1043986,19.9389452 25.2207205,20.218726 25.4541247,20.4262808 C25.6875288,20.6345959 25.9992411,20.7387534 26.3907822,20.7387534 Z M28.399426,22.0555479 C28.3195973,21.8996918 28.2488918,21.6465205 28.1888301,21.295274 C27.6072205,21.9027329 26.8948438,22.2060822 26.0524603,22.2060822 C25.2344055,22.2060822 24.5676452,21.9726781 24.0506589,21.5066301 C23.5344329,21.0398219 23.2759397,20.4635342 23.2759397,19.7754863 C23.2759397,18.9080137 23.5982959,18.242774 24.2430082,17.7782466 C24.8869603,17.3144795 25.8091726,17.0825959 27.0081247,17.0825959 L28.1287685,17.0825959 L28.1287685,16.5481233 C28.1287685,16.1269315 28.010926,15.7901301 27.7752411,15.5369589 C27.5395562,15.2830274 27.1807068,15.1568219 26.6994534,15.1568219 C26.2828233,15.1568219 25.9422205,15.2609795 25.6761247,15.4685342 C25.4100288,15.6768493 25.2777411,15.9414247 25.2777411,16.2622603 L23.4492822,16.2622603 C23.4492822,15.8159795 23.5967753,15.398589 23.8932822,15.010089 C24.1890288,14.621589 24.5912137,14.3167192 25.1005973,14.0962397 C25.6099808,13.875 26.1779055,13.7647603 26.8043712,13.7647603 C27.7569945,13.7647603 28.5172685,14.0042466 29.0836726,14.4832192 C29.650837,14.9621918 29.9420219,15.6357945 29.9564671,16.5032671 L29.9564671,20.1746301 C29.9564671,20.906774 30.0598644,21.4914247 30.2651384,21.9270616 L30.2651384,22.0555479 L28.399426,22.0555479 Z" id="Fill-8" fill="#444444"></path>
                <path d="M33.6140692,13.9152185 L33.6665281,14.8556774 C34.2686651,14.1288555 35.0585897,13.7646842 36.0370623,13.7646842 C37.731713,13.7646842 38.594624,14.7355541 38.6242747,16.6765336 L38.6242747,22.0554719 L36.796576,22.0554719 L36.796576,16.7822116 C36.796576,16.2652253 36.6848158,15.8828075 36.4620555,15.6341979 C36.2385349,15.3863486 35.8736034,15.2616637 35.367261,15.2616637 C34.6297952,15.2616637 34.0808774,15.595424 33.7197473,16.2621842 L33.7197473,22.0554719 L31.8912884,22.0554719 L31.8912884,13.9152185 L33.6140692,13.9152185 Z" id="Fill-10" fill="#444444"></path>
                <path d="M42.2295699,13.9152185 L42.2820288,14.8556774 C42.8841658,14.1288555 43.6740904,13.7646842 44.652563,13.7646842 C46.3472137,13.7646842 47.2101247,14.7355541 47.2397753,16.6765336 L47.2397753,22.0554719 L45.4120767,22.0554719 L45.4120767,16.7822116 C45.4120767,16.2652253 45.3003164,15.8828075 45.0775562,15.6341979 C44.8540356,15.3863486 44.4891041,15.2616637 43.9827616,15.2616637 C43.2452959,15.2616637 42.6963781,15.595424 42.3352479,16.2621842 L42.3352479,22.0554719 L40.506789,22.0554719 L40.506789,13.9152185 L42.2295699,13.9152185 Z" id="Fill-12" fill="#444444"></path>
                <path d="M52.5147842,15.232013 C52.0130034,15.232013 51.6085377,15.4076363 51.2998664,15.7581226 C50.9911952,16.1093692 50.7942842,16.5989856 50.7091336,17.2254514 L54.1927089,17.2254514 L54.1927089,17.0901226 C54.1524144,16.4781021 53.9889555,16.0158555 53.7030925,15.7018623 C53.4172295,15.3886295 53.021887,15.232013 52.5147842,15.232013 M52.7329829,22.2060062 C51.5743253,22.2060062 50.635387,21.8410747 49.9154075,21.1112116 C49.1954281,20.3813486 48.8358185,19.4097185 48.8358185,18.1963212 L48.8358185,17.9705199 C48.8358185,17.157787 48.9924349,16.4317253 49.3064281,15.7923349 C49.619661,15.1529445 50.0598596,14.6549651 50.6262637,14.2991568 C51.1934281,13.9433486 51.8252158,13.7646842 52.522387,13.7646842 C53.6308664,13.7646842 54.4869349,14.1182116 55.0913527,14.8252664 C55.6957705,15.5330815 55.9983596,16.5336021 55.9983596,17.8275884 L55.9983596,18.5650541 L50.6787226,18.5650541 C50.7342226,19.2371363 50.9585034,19.7685678 51.3523253,20.1593486 C51.7461473,20.5508897 52.2418459,20.7462801 52.838661,20.7462801 C53.6757226,20.7462801 54.3576884,20.4079582 54.8845582,19.7305541 L55.8706336,20.671013 C55.5437158,21.1575884 55.108839,21.5354445 54.5652432,21.8038212 C54.0201267,22.0721979 53.410387,22.2060062 52.7329829,22.2060062" id="Fill-14" fill="#444444"></path>
                <path d="M58.9485267,18.0755897 C58.9485267,18.9080897 59.1127459,19.5619253 59.4411842,20.035576 C59.7696226,20.5092267 60.2250267,20.7464322 60.8066363,20.7464322 C61.5288966,20.7464322 62.06565,20.437761 62.4168966,19.8211788 L62.4168966,16.1194048 C62.06565,15.5279116 61.5334582,15.2321651 60.8218418,15.2321651 C60.2394719,15.2321651 59.7825473,15.4648089 59.448787,15.9316171 C59.1150267,16.3976651 58.9485267,17.1123226 58.9485267,18.0755897 M57.1200678,17.9174527 C57.1200678,16.6439938 57.4112527,15.6335897 57.9928623,14.8862404 C58.5744719,14.1388911 59.3621158,13.7648363 60.3550336,13.7648363 C61.2628007,13.7648363 61.9827801,14.0833911 62.5142116,14.7205007 L62.6198897,13.9153705 L64.2445952,13.9153705 L64.2445952,25.1856719 L62.4168966,25.1856719 L62.4168966,21.3637747 C61.8847048,21.9248568 61.1928555,22.2061582 60.3405884,22.2061582 C59.3674377,22.2061582 58.5873966,21.8260212 58.0004651,21.0665075 C57.4135336,20.3062336 57.1200678,19.2570555 57.1200678,17.9174527" id="Fill-16" fill="#444444"></path>
                <path d="M71.189774,21.2580966 C70.6530205,21.8898842 69.891226,22.2061582 68.9028699,22.2061582 C68.0201918,22.2061582 67.351911,21.9476651 66.8980274,21.431439 C66.4441438,20.9144527 66.2168219,20.1671034 66.2168219,19.1893911 L66.2168219,13.9153705 L68.0452808,13.9153705 L68.0452808,19.1665829 C68.0452808,20.1997952 68.4740753,20.7167815 69.3316644,20.7167815 C70.2196644,20.7167815 70.8187603,20.3982267 71.1297123,19.7611171 L71.1297123,13.9153705 L72.9581712,13.9153705 L72.9581712,22.055624 L71.2353904,22.055624 L71.189774,21.2580966 Z" id="Fill-18" fill="#444444"></path>
                <path d="M74.9827808,22.0555479 L76.8112397,22.0555479 L76.8112397,13.9152945 L74.9827808,13.9152945 L74.9827808,22.0555479 Z M74.8695,11.8017329 C74.8695,11.5204315 74.9584521,11.2870274 75.1371164,11.1015205 C75.3150205,10.9160137 75.5697123,10.8232603 75.9004315,10.8232603 C76.2311507,10.8232603 76.487363,10.9160137 76.6683082,11.1015205 C76.8484932,11.2870274 76.9382055,11.5204315 76.9382055,11.8017329 C76.9382055,12.0769521 76.8484932,12.3065548 76.6683082,12.4897808 C76.487363,12.6730068 76.2311507,12.7642397 75.9004315,12.7642397 C75.5697123,12.7642397 75.3150205,12.6730068 75.1371164,12.4897808 C74.9584521,12.3065548 74.8695,12.0769521 74.8695,11.8017329 Z" id="Fill-20" fill="#444444"></path>
                <path d="M80.5435767,13.9152185 L80.5960356,14.8556774 C81.1981726,14.1288555 81.9880973,13.7646842 82.9665699,13.7646842 C84.6612205,13.7646842 85.5241315,14.7355541 85.5537822,16.6765336 L85.5537822,22.0554719 L83.7260836,22.0554719 L83.7260836,16.7822116 C83.7260836,16.2652253 83.6143233,15.8828075 83.391563,15.6341979 C83.1680425,15.3863486 82.803111,15.2616637 82.2967685,15.2616637 C81.5593027,15.2616637 81.0103849,15.595424 80.6492548,16.2621842 L80.6492548,22.0554719 L78.8207959,22.0554719 L78.8207959,13.9152185 L80.5435767,13.9152185 Z" id="Fill-22" fill="#444444"></path>
                <path d="M3.04109589,69.3572856 L102.234801,69.3572856 C103.914247,69.3572856 105.275897,67.9956349 105.275897,66.3161897 L105.275897,41.833087 C105.275897,40.1536418 103.914247,38.7919911 102.234801,38.7919911 L3.04109589,38.7919911 C1.36165068,38.7919911 0,40.1536418 0,41.833087 L0,66.3161897 C0,67.9956349 1.36165068,69.3572856 3.04109589,69.3572856" id="Fill-23" fill="#E7E7E7"></path>
                <path d="M15.9024226,57.4435644 C15.9024226,56.962311 15.7328815,56.5912973 15.3945596,56.3305233 C15.0562377,56.0697493 14.4449774,55.8059342 13.5622993,55.5405986 C12.6796212,55.2745027 11.9778884,54.9787562 11.4563404,54.6525986 C10.4581007,54.0253726 9.95936096,53.2080781 9.95936096,52.1999548 C9.95936096,51.3172767 10.3189705,50.5896945 11.03895,50.0179685 C11.7581692,49.4462425 12.6925459,49.1603795 13.8413199,49.1603795 C14.6031144,49.1603795 15.2827993,49.3010301 15.8796144,49.5815712 C16.4764295,49.8628726 16.9455185,50.2627767 17.2868815,50.7820438 C17.6274842,51.3005507 17.7985459,51.8760781 17.7985459,52.508626 L15.9024226,52.508626 C15.9024226,51.9369 15.7229979,51.4890986 15.3641486,51.1652219 C15.0060596,50.8421055 14.4928747,50.6801671 13.8261144,50.6801671 C13.2042103,50.6801671 12.720676,50.8132151 12.3777925,51.0785507 C12.0341486,51.3454068 11.8623267,51.7156603 11.8623267,52.1923521 C11.8623267,52.5937767 12.0478336,52.9290575 12.4188473,53.196674 C12.789861,53.4650507 13.4018815,53.7258247 14.2549089,53.9789959 C15.107176,54.2321671 15.7914226,54.5210712 16.3084089,54.8441877 C16.8246349,55.1680644 17.2040116,55.5390781 17.4442582,55.957989 C17.6852651,56.3769 17.8053884,56.8672767 17.8053884,57.4283589 C17.8053884,58.3414479 17.4556623,59.0675096 16.7562103,59.6065438 C16.0567582,60.1455781 15.107176,60.4154753 13.908224,60.4154753 C13.1160185,60.4154753 12.387676,60.2687425 11.7231966,59.9752767 C11.0587171,59.681811 10.5417308,59.2773452 10.1729979,58.7603589 C9.80426507,58.2433726 9.62027877,57.6419959 9.62027877,56.9547082 L11.5240048,56.9547082 C11.5240048,57.5766123 11.7292788,58.0578658 12.140587,58.3992288 C12.5518952,58.7405918 13.1411075,58.9108932 13.908224,58.9108932 C14.5711829,58.9108932 15.0684021,58.7763247 15.4021623,58.5079479 C15.7351623,58.2395712 15.9024226,57.8852836 15.9024226,57.4435644" id="Fill-24" fill="#444444"></path>
                <path d="M21.6361048,50.1459226 L21.6361048,52.1249158 L23.0730226,52.1249158 L23.0730226,53.4789637 L21.6361048,53.4789637 L21.6361048,58.0231212 C21.6361048,58.3340733 21.697687,58.5583541 21.8208514,58.696724 C21.9432555,58.8343336 22.1629747,58.9035185 22.4784884,58.9035185 C22.6890842,58.9035185 22.9027212,58.8776692 23.1178788,58.8274911 L23.1178788,60.242361 C22.7020089,60.3579226 22.3005842,60.4149432 21.9143651,60.4149432 C20.510139,60.4149432 19.8076459,59.640224 19.8076459,58.0907856 L19.8076459,53.4789637 L18.4688034,53.4789637 L18.4688034,52.1249158 L19.8076459,52.1249158 L19.8076459,50.1459226 L21.6361048,50.1459226 Z" id="Fill-25" fill="#444444"></path>
                <path d="M27.3700151,58.9481466 C27.7311452,58.9481466 28.0709877,58.8607151 28.3895425,58.6850918 C28.7080973,58.5094685 28.9475836,58.2737836 29.1080014,57.978037 L29.1080014,56.4430438 L28.1226863,56.4430438 C27.4452822,56.4430438 26.9358986,56.5608863 26.5952959,56.7965712 C26.2539329,57.0322562 26.0836315,57.3660164 26.0836315,57.7970918 C26.0836315,58.1483384 26.1999534,58.4281192 26.4333575,58.635674 C26.6667616,58.843989 26.978474,58.9481466 27.3700151,58.9481466 Z M29.3786589,60.2649411 C29.2988301,60.1090849 29.2281247,59.8559137 29.168063,59.5046671 C28.5864534,60.112126 27.8740767,60.4154753 27.0316932,60.4154753 C26.2136384,60.4154753 25.5468781,60.1820712 25.0298918,59.7160233 C24.5136658,59.2492151 24.2551726,58.6729274 24.2551726,57.9848795 C24.2551726,57.1174068 24.5775288,56.4521671 25.2222411,55.9876397 C25.8661932,55.5238726 26.7884055,55.291989 27.9873575,55.291989 L29.1080014,55.291989 L29.1080014,54.7575164 C29.1080014,54.3363247 28.9901589,53.9995233 28.754474,53.7463521 C28.518789,53.4924205 28.1599397,53.3662151 27.6786863,53.3662151 C27.2620562,53.3662151 26.9214534,53.4703726 26.6553575,53.6779274 C26.3892616,53.8862425 26.256974,54.1508178 26.256974,54.4716534 L24.4285151,54.4716534 C24.4285151,54.0253726 24.5760082,53.6079822 24.8725151,53.2194822 C25.1682616,52.8309822 25.5704466,52.5261123 26.0798301,52.3056329 C26.5892137,52.0843932 27.1571384,51.9741534 27.7836041,51.9741534 C28.7362274,51.9741534 29.4965014,52.2136397 30.0629055,52.6926123 C30.6300699,53.1715849 30.9212548,53.8451877 30.9357,54.7126603 L30.9357,58.3840233 C30.9357,59.1161671 31.0390973,59.7008178 31.2443712,60.1364548 L31.2443712,60.2649411 L29.3786589,60.2649411 Z" id="Fill-26" fill="#444444"></path>
                <path d="M35.1877603,50.1459226 L35.1877603,52.1249158 L36.6246781,52.1249158 L36.6246781,53.4789637 L35.1877603,53.4789637 L35.1877603,58.0231212 C35.1877603,58.3340733 35.2493425,58.5583541 35.3725068,58.696724 C35.494911,58.8343336 35.7146301,58.9035185 36.0301438,58.9035185 C36.2407397,58.9035185 36.4543767,58.8776692 36.6695342,58.8274911 L36.6695342,60.242361 C36.2536644,60.3579226 35.8522397,60.4149432 35.4660205,60.4149432 C34.0617945,60.4149432 33.3593014,59.640224 33.3593014,58.0907856 L33.3593014,53.4789637 L32.0204589,53.4789637 L32.0204589,52.1249158 L33.3593014,52.1249158 L33.3593014,50.1459226 L35.1877603,50.1459226 Z" id="Fill-27" fill="#444444"></path>
                <path d="M42.9979788,59.4674897 C42.4612253,60.0992774 41.6994308,60.4155514 40.7110747,60.4155514 C39.8283966,60.4155514 39.1601158,60.1570582 38.7062322,59.6408322 C38.2523486,59.1238459 38.0250267,58.3764966 38.0250267,57.3987842 L38.0250267,52.1247637 L39.8534856,52.1247637 L39.8534856,57.375976 C39.8534856,58.4091884 40.2822801,58.9261747 41.1398692,58.9261747 C42.0278692,58.9261747 42.6269651,58.6076199 42.9379171,57.9705103 L42.9379171,52.1247637 L44.766376,52.1247637 L44.766376,60.2650171 L43.0435952,60.2650171 L42.9979788,59.4674897 Z" id="Fill-28" fill="#444444"></path>
                <path d="M50.0409288,53.4413301 C49.5391479,53.4413301 49.1346822,53.6169534 48.826011,53.9674397 C48.5173397,54.3186863 48.3204288,54.8083027 48.2352781,55.4347685 L51.7188534,55.4347685 L51.7188534,55.2994397 C51.6785589,54.6874192 51.5151,54.2251726 51.229237,53.9111795 C50.943374,53.5979466 50.5480315,53.4413301 50.0409288,53.4413301 M50.2591274,60.4153233 C49.1004699,60.4153233 48.1615315,60.0503918 47.4415521,59.3205288 C46.7215726,58.5906658 46.361963,57.6190356 46.361963,56.4056384 L46.361963,56.179837 C46.361963,55.3671041 46.5185795,54.6410425 46.8325726,54.0016521 C47.1458055,53.3622616 47.5860041,52.8642822 48.1524082,52.508474 C48.7195726,52.1526658 49.3513603,51.9740014 50.0485315,51.9740014 C51.157011,51.9740014 52.0130795,52.3275288 52.6174973,53.0345836 C53.2219151,53.7423986 53.5245041,54.7429192 53.5245041,56.0369055 L53.5245041,56.7743712 L48.2048671,56.7743712 C48.2603671,57.4464534 48.4846479,57.9778849 48.8784699,58.3686658 C49.2722918,58.7602068 49.7679904,58.9555973 50.3648055,58.9555973 C51.2018671,58.9555973 51.8838329,58.6172753 52.4107027,57.9398712 L53.3967781,58.8803301 C53.0698603,59.3669055 52.6349836,59.7447616 52.0913877,60.0131384 C51.5462712,60.2815151 50.9365315,60.4153233 50.2591274,60.4153233" id="Fill-29" fill="#444444"></path>
            </g>
            <g id="Group-33" transform="translate(0.000000, 76.965575)">
                <mask id="mask-4" fill="white">
                    <use xlink:href="#path-3"></use>
                </mask>
                <g id="Clip-32"></g>
                <path d="M3.42731507,0.213636986 C1.53499315,0.213636986 0,1.57528767 0,3.25549315 L0,27.7385959 C0,29.4172808 1.53499315,30.7789315 3.42731507,30.7789315 L125.509829,30.7789315 C127.403671,30.7789315 128.937904,29.4172808 128.937904,27.7385959 L128.937904,3.25549315 C128.937904,1.57528767 127.403671,0.213636986 125.509829,0.213636986 L3.42731507,0.213636986 Z" id="Fill-31" fill="#448AFF" mask="url(#mask-4)"></path>
            </g>
            <g id="Group-91" transform="translate(0.000000, 17.177904)">
                <polygon id="Fill-34" fill="#FFFFFF" points="18.8741055 81.4745623 16.9779822 81.4745623 16.9779822 76.6141308 12.0802973 76.6141308 12.0802973 81.4745623 10.1773315 81.4745623 10.1773315 70.5205349 12.0802973 70.5205349 12.0802973 75.0798979 16.9779822 75.0798979 16.9779822 70.5205349 18.8741055 70.5205349"></polygon>
                <path d="M25.924126,80.677187 C25.3873726,81.3089747 24.6255781,81.6252486 23.6372219,81.6252486 C22.7545438,81.6252486 22.086263,81.3667555 21.6323795,80.8505295 C21.1784959,80.3335432 20.951174,79.5861938 20.951174,78.6084815 L20.951174,73.334461 L22.7796329,73.334461 L22.7796329,78.5856733 C22.7796329,79.6188856 23.2084274,80.1358719 24.0660164,80.1358719 C24.9540164,80.1358719 25.5531123,79.8173171 25.8640644,79.1802075 L25.8640644,73.334461 L27.6925233,73.334461 L27.6925233,81.4747144 L25.9697425,81.4747144 L25.924126,80.677187 Z" id="Fill-36" fill="#FFFFFF"></path>
                <path d="M31.3199425,73.3343089 L31.3724014,74.1842952 C31.9441274,73.5175349 32.7272096,73.1837747 33.7201274,73.1837747 C34.8080795,73.1837747 35.5531479,73.6004048 35.9545726,74.4329048 C36.5460658,73.6004048 37.3785658,73.1837747 38.4520726,73.1837747 C39.3499562,73.1837747 40.0174767,73.4323842 40.4569151,73.9288432 C40.8955932,74.4253021 41.119874,75.1574459 41.1305178,76.1252747 L41.1305178,81.4745623 L39.3020589,81.4745623 L39.3020589,76.1784938 C39.3020589,75.6615075 39.1895384,75.2828911 38.963737,75.0426445 C38.7379356,74.8016377 38.3638808,74.6807541 37.8423329,74.6807541 C37.426463,74.6807541 37.0866205,74.7925144 36.8228055,75.0160349 C36.5597507,75.2387952 36.3757644,75.5315007 36.2700863,75.8926308 L36.277689,81.4745623 L34.4499904,81.4745623 L34.4499904,76.1184322 C34.4241411,75.1597267 33.9352849,74.6807541 32.9826616,74.6807541 C32.2505178,74.6807541 31.7312507,74.9795418 31.4256205,75.5763568 L31.4256205,81.4745623 L29.5971616,81.4745623 L29.5971616,73.3343089 L31.3199425,73.3343089 Z" id="Fill-38" fill="#FFFFFF"></path>
                <path d="M45.9083836,80.1578438 C46.2695137,80.1578438 46.6093562,80.0704123 46.927911,79.894789 C47.2464658,79.7191658 47.4859521,79.4834808 47.6463699,79.1877342 L47.6463699,77.6527411 L46.6610548,77.6527411 C45.9836507,77.6527411 45.4742671,77.7705836 45.1336644,78.0062685 C44.7923014,78.2419534 44.622,78.5757137 44.622,79.006789 C44.622,79.3580356 44.7383219,79.6378164 44.971726,79.8453712 C45.2051301,80.0536863 45.5168425,80.1578438 45.9083836,80.1578438 Z M47.9170274,81.4746384 C47.8371986,81.3187822 47.7664932,81.065611 47.7064315,80.7143644 C47.1248219,81.3218233 46.4124452,81.6251726 45.5700616,81.6251726 C44.7520068,81.6251726 44.0852466,81.3917685 43.5682603,80.9257205 C43.0520342,80.4589123 42.7935411,79.8826247 42.7935411,79.1945767 C42.7935411,78.3271041 43.1158973,77.6618644 43.7606096,77.197337 C44.4045616,76.7335699 45.326774,76.5016863 46.525726,76.5016863 L47.6463699,76.5016863 L47.6463699,75.9672137 C47.6463699,75.5460219 47.5285274,75.2092205 47.2928425,74.9560493 C47.0571575,74.7021178 46.6983082,74.5759123 46.2170548,74.5759123 C45.8004247,74.5759123 45.4598219,74.6800699 45.193726,74.8876247 C44.9276301,75.0959397 44.7953425,75.3605151 44.7953425,75.6813507 L42.9668836,75.6813507 C42.9668836,75.2350699 43.1143767,74.8176795 43.4108836,74.4291795 C43.7066301,74.0406795 44.1088151,73.7358096 44.6181986,73.5153301 C45.1275822,73.2940904 45.6955068,73.1838507 46.3219726,73.1838507 C47.2745959,73.1838507 48.0348699,73.423337 48.601274,73.9023096 C49.1684384,74.3812822 49.4596233,75.0548849 49.4740685,75.9223575 L49.4740685,79.5937205 C49.4740685,80.3258644 49.5774658,80.9105151 49.7827397,81.3461521 L49.7827397,81.4746384 L47.9170274,81.4746384 Z" id="Fill-40" fill="#FFFFFF"></path>
                <path d="M53.1317466,73.3343089 L53.1842055,74.2747678 C53.7863425,73.5479459 54.5762671,73.1837747 55.5547397,73.1837747 C57.2493904,73.1837747 58.1123014,74.1546445 58.1419521,76.095624 L58.1419521,81.4745623 L56.3142534,81.4745623 L56.3142534,76.2013021 C56.3142534,75.6843158 56.2024932,75.3018979 55.9797329,75.0532884 C55.7562123,74.805439 55.3912808,74.6807541 54.8849384,74.6807541 C54.1474726,74.6807541 53.5985548,75.0145144 53.2374247,75.6812747 L53.2374247,81.4745623 L51.4089658,81.4745623 L51.4089658,73.3343089 L53.1317466,73.3343089 Z" id="Fill-42" fill="#FFFFFF"></path>
                <path d="M3.04109589,128.776604 L102.234801,128.776604 C103.914247,128.776604 105.275897,127.414953 105.275897,125.735508 L105.275897,101.252405 C105.275897,99.5729603 103.914247,98.2113096 102.234801,98.2113096 L3.04109589,98.2113096 C1.36165068,98.2113096 0,99.5729603 0,101.252405 L0,125.735508 C0,127.414953 1.36165068,128.776604 3.04109589,128.776604" id="Fill-44" fill="#E7E7E7"></path>
                <path d="M12.0806774,110.265149 L12.0806774,118.164396 L13.3222048,118.164396 C14.3196842,118.164396 15.0860404,117.851923 15.620513,117.227738 C16.1542253,116.603553 16.4264034,115.70719 16.436287,114.538649 L16.436287,113.92891 C16.436287,112.740601 16.1785541,111.832834 15.6615678,111.205608 C15.1453418,110.579142 14.3949514,110.265149 13.4119171,110.265149 L12.0806774,110.265149 Z M10.1769514,119.684184 L10.1769514,108.730156 L13.4119171,108.730156 C14.3797459,108.730156 15.2388555,108.946074 15.9892459,109.37791 C16.7381158,109.808985 17.3189651,110.421005 17.7302733,111.213211 C18.1415815,112.005416 18.3476158,112.913184 18.3476158,113.936512 L18.3476158,114.48543 C18.3476158,115.523964 18.1408212,116.437053 17.7264719,117.223937 C17.3128829,118.011581 16.7236705,118.618279 15.9588349,119.044793 C15.1939993,119.471307 14.3174034,119.684184 13.3298075,119.684184 L10.1769514,119.684184 Z" id="Fill-46" fill="#444444"></path>
                <path d="M21.5985473,115.696927 C21.5985473,116.534749 21.7718897,117.190105 22.1178144,117.664516 C22.463739,118.138166 22.9449925,118.375372 23.5623349,118.375372 C24.1789171,118.375372 24.65865,118.134365 25.0030541,117.653112 C25.3459377,117.171098 25.5177596,116.467084 25.5177596,115.53879 C25.5177596,114.716173 25.341376,114.064618 24.9878486,113.582605 C24.6343212,113.101351 24.1538281,112.861105 23.5471295,112.861105 C22.9503144,112.861105 22.4759034,113.09755 22.1246568,113.571961 C21.7734103,114.045612 21.5985473,114.754187 21.5985473,115.696927 Z M19.7700884,115.53879 C19.7700884,114.741262 19.9282253,114.022803 20.2444993,113.383413 C20.560013,112.744023 21.004013,112.252886 21.575739,111.909242 C22.1474651,111.565598 22.8043418,111.393776 23.5471295,111.393776 C24.6449651,111.393776 25.5367664,111.747303 26.2217733,112.454358 C26.9060199,113.161413 27.275513,114.099591 27.331013,115.268132 L27.3386158,115.696927 C27.3386158,116.499776 27.1842801,117.216714 26.8756089,117.848502 C26.5676979,118.48029 26.1259788,118.969906 25.5519719,119.315831 C24.9772048,119.661755 24.3142459,119.834338 23.5623349,119.834338 C22.413561,119.834338 21.4943897,119.45192 20.8048212,118.687845 C20.1152527,117.923009 19.7700884,116.903482 19.7700884,115.629262 L19.7700884,115.53879 Z" id="Fill-48" fill="#444444"></path>
                <path d="M30.4319425,115.712132 C30.4319425,116.529427 30.5984425,117.172618 30.9322027,117.641708 C31.265963,118.110797 31.7289699,118.344961 32.320463,118.344961 C33.0579288,118.344961 33.6038055,118.028687 33.960374,117.396899 L33.960374,113.816009 C33.6144493,113.199427 33.0731342,112.890755 32.3349082,112.890755 C31.7335315,112.890755 31.265963,113.129482 30.9322027,113.605413 C30.5984425,114.082105 30.4319425,114.783838 30.4319425,115.712132 M28.6110863,115.553995 C28.6110863,114.28966 28.9083534,113.280776 29.5028877,112.525824 C30.0974219,111.770872 30.885826,111.393776 31.8688603,111.393776 C32.7963945,111.393776 33.5262575,111.716892 34.0584493,112.363886 L34.1405589,111.54431 L35.7888329,111.54431 L35.7888329,119.435954 C35.7888329,120.504139 35.4558329,121.347283 34.7913534,121.963865 C34.126874,122.580447 33.230511,122.889118 32.1022644,122.889118 C31.5054493,122.889118 30.9223192,122.765194 30.352874,122.516584 C29.7834288,122.268735 29.3515932,121.943338 29.0550863,121.542673 L29.9202781,120.444077 C30.4821205,121.111598 31.1747301,121.444598 31.9965863,121.444598 C32.6032849,121.444598 33.0822575,121.280379 33.4335041,120.95194 C33.7847507,120.623502 33.960374,120.140728 33.960374,119.503618 L33.960374,118.954701 C33.4335041,119.541632 32.7317712,119.834338 31.8536548,119.834338 C30.9010315,119.834338 30.122511,119.455721 29.5180932,118.698488 C28.9136753,117.941255 28.6110863,116.892838 28.6110863,115.553995" id="Fill-50" fill="#444444"></path>
                <path d="M3.04109589,166.986301 L102.234801,166.986301 C103.914247,166.986301 105.275897,165.624651 105.275897,163.945205 L105.275897,139.462103 C105.275897,137.782658 103.914247,136.421007 102.234801,136.421007 L3.04109589,136.421007 C1.36165068,136.421007 0,137.782658 0,139.462103 L0,163.945205 C0,165.624651 1.36165068,166.986301 3.04109589,166.986301" id="Fill-52" fill="#E7E7E7"></path>
                <path d="M12.0806774,152.951112 L12.0806774,156.373865 L14.194239,156.373865 C14.7910541,156.373865 15.2578623,156.226372 15.5939034,155.930625 C15.9299445,155.634879 16.0979651,155.223571 16.0979651,154.696701 C16.0979651,153.55781 15.5163555,152.976201 14.352376,152.951112 L12.0806774,152.951112 Z M12.0806774,151.552208 L13.9463897,151.552208 C14.5378829,151.552208 15.0008897,151.417639 15.33465,151.149262 C15.66765,150.880886 15.83415,150.501509 15.83415,150.009612 C15.83415,149.467536 15.6805747,149.076755 15.3719034,148.835749 C15.0632322,148.595502 14.5834993,148.474618 13.9311842,148.474618 L12.0806774,148.474618 L12.0806774,151.552208 Z M10.1769514,157.893653 L10.1769514,146.940386 L13.9311842,146.940386 C15.1696705,146.940386 16.1131705,147.188235 16.7601637,147.684694 C17.4071568,148.181913 17.7302733,148.92166 17.7302733,149.904694 C17.7302733,150.405714 17.5949445,150.857317 17.324287,151.257982 C17.0536295,151.659406 16.6575267,151.970358 16.1352185,152.190838 C16.7274719,152.352016 17.1851568,152.653845 17.5090336,153.097845 C17.83215,153.541845 17.9940884,154.074797 17.9940884,154.696701 C17.9940884,155.724591 17.6641295,156.514516 17.0049719,157.066475 C16.3450541,157.618434 15.4007938,157.893653 14.1721911,157.893653 L10.1769514,157.893653 Z" id="Fill-54" fill="#444444"></path>
                <path d="M23.1332363,151.070422 C22.6314555,151.070422 22.2269897,151.246045 21.9183185,151.596532 C21.6096473,151.947778 21.4127363,152.437395 21.3275856,153.06386 L24.811161,153.06386 L24.811161,152.928532 C24.7708664,152.316511 24.6074075,151.854264 24.3215445,151.540271 C24.0356815,151.227038 23.640339,151.070422 23.1332363,151.070422 M23.3514349,158.044415 C22.1927774,158.044415 21.253839,157.679484 20.5338596,156.949621 C19.8138801,156.219758 19.4542705,155.248127 19.4542705,154.03473 L19.4542705,153.808929 C19.4542705,152.996196 19.610887,152.270134 19.9248801,151.630744 C20.238113,150.991353 20.6783116,150.493374 21.2447158,150.137566 C21.8118801,149.781758 22.4436678,149.603093 23.140839,149.603093 C24.2493185,149.603093 25.105387,149.956621 25.7098048,150.663675 C26.3142226,151.37149 26.6168116,152.372011 26.6168116,153.665997 L26.6168116,154.403463 L21.2971747,154.403463 C21.3526747,155.075545 21.5769555,155.606977 21.9707774,155.997758 C22.3645993,156.389299 22.8602979,156.584689 23.457113,156.584689 C24.2941747,156.584689 24.9761404,156.246367 25.5030103,155.568963 L26.4890856,156.509422 C26.1621678,156.995997 25.7272911,157.373853 25.1836952,157.64223 C24.6385788,157.910607 24.028839,158.044415 23.3514349,158.044415" id="Fill-56" fill="#444444"></path>
                <path d="M29.7774226,149.753703 L29.8298815,150.694162 C30.4320185,149.96734 31.2219432,149.603169 32.2004158,149.603169 C33.8950664,149.603169 34.7579774,150.574039 34.7876281,152.515018 L34.7876281,157.893957 L32.9599295,157.893957 L32.9599295,152.620697 C32.9599295,152.10371 32.8481692,151.721292 32.6254089,151.472683 C32.4018884,151.224834 32.0369568,151.100149 31.5306144,151.100149 C30.7931486,151.100149 30.2442308,151.433909 29.8831007,152.100669 L29.8831007,157.893957 L28.0546418,157.893957 L28.0546418,149.753703 L29.7774226,149.753703 Z" id="Fill-58" fill="#444444"></path>
                <path d="M40.0400568,156.584993 C40.4969815,156.584993 40.8755979,156.451945 41.1759062,156.18661 C41.4769747,155.920514 41.6373925,155.592075 41.6571596,155.200534 L43.3807007,155.200534 C43.3601733,155.707637 43.2027966,156.179767 42.90705,156.618445 C42.6105432,157.057884 42.2098788,157.405329 41.702776,157.660781 C41.1964336,157.916233 40.6497966,158.043959 40.0628651,158.043959 C38.9239747,158.043959 38.0215295,157.675986 37.3540089,156.938521 C36.6872486,156.201055 36.3534884,155.183048 36.3534884,153.88374 L36.3534884,153.695952 C36.3534884,152.457466 36.6849678,151.465308 37.3471664,150.72024 C38.0093651,149.975932 38.9118103,149.603397 40.0552623,149.603397 C41.0230911,149.603397 41.8122555,149.885459 42.4212349,150.449582 C43.0309747,151.013705 43.3502897,151.754973 43.3807007,152.672623 L41.6571596,152.672623 C41.6373925,152.206575 41.4784952,151.822637 41.1804678,151.521568 C40.8816801,151.2205 40.5015432,151.070726 40.0400568,151.070726 C39.4485637,151.070726 38.991639,151.284363 38.6708034,151.713918 C38.3499678,152.142712 38.1865089,152.793507 38.1819473,153.666301 L38.1819473,153.959007 C38.1819473,154.842445 38.3408445,155.500082 38.6601596,155.934199 C38.9779541,156.367555 39.4379199,156.584993 40.0400568,156.584993" id="Fill-60" fill="#444444"></path>
                <path d="M46.6092801,150.641703 C47.2060952,149.949094 47.9610473,149.603169 48.8741363,149.603169 C50.6090815,149.603169 51.4887185,150.593806 51.5145678,152.57508 L51.5145678,157.893957 L49.6861089,157.893957 L49.6861089,152.642745 C49.6861089,152.080902 49.5644651,151.683279 49.3211774,151.449875 C49.0778897,151.217231 48.720561,151.100909 48.2491911,151.100909 C47.5170473,151.100909 46.9704103,151.426306 46.6092801,152.078621 L46.6092801,157.893957 L44.7808212,157.893957 L44.7808212,146.338553 L46.6092801,146.338553 L46.6092801,150.641703 Z" id="Fill-62" fill="#444444"></path>
                <path d="M148.518228,94.2345445 C149.293708,98.9292363 151.998002,101.790908 157.07131,101.218421 C158.803975,101.022271 159.747475,100.143394 159.535358,99.5678664 C158.994043,98.0898938 157.961591,99.3215377 154.654399,98.7695788 C153.123208,98.514887 152.279303,96.239387 152.421475,95.2920856 C152.562886,94.3455445 153.891845,94.0551199 154.630831,93.925113 C156.292029,93.6331678 155.048982,98.2723596 157.185351,97.8443253 C159.737591,97.3341815 157.185351,90.8262363 155.717262,88.6700993 L147.944982,89.7474075 C148.07879,91.0619212 148.309913,92.9762911 148.518228,94.2345445" id="Fill-64" fill="#F6CFB5"></path>
                <path d="M157.058614,97.1214568 C156.537066,97.2164911 156.173655,97.0811623 155.924285,96.8751281 C156.114353,97.5274432 156.435949,98.1942034 157.184819,98.0999295 C158.195984,97.9722034 158.2416,97.0104568 158.262888,96.078361 C158.111593,96.5292034 157.785436,96.9891692 157.058614,97.1214568" id="Fill-66" fill="#F6CFB5"></path>
                <path d="M196.733891,94.2345445 C195.958412,98.9292363 193.254117,101.790908 188.180809,101.218421 C186.448145,101.022271 185.504645,100.143394 185.716761,99.5678664 C186.258076,98.0898938 187.290528,99.3215377 190.59772,98.7695788 C192.128912,98.514887 192.972816,96.239387 192.830645,95.2920856 C192.689234,94.3455445 191.360275,94.0551199 190.621288,93.925113 C188.96009,93.6331678 190.203138,98.2723596 188.066768,97.8443253 C185.514528,97.3341815 188.066768,90.8262363 189.534857,88.6700993 L197.307138,89.7474075 C197.173329,91.0619212 196.942206,92.9762911 196.733891,94.2345445" id="Fill-68" fill="#F6CFB5"></path>
                <path d="M188.193505,97.1214568 C188.715053,97.2164911 189.078464,97.0811623 189.327834,96.8751281 C189.137766,97.5274432 188.81617,98.1942034 188.0673,98.0999295 C187.056136,97.9722034 187.010519,97.0104568 186.989232,96.078361 C187.140526,96.5292034 187.466684,96.9891692 188.193505,97.1214568" id="Fill-70" fill="#F6CFB5"></path>
                <path d="M181.172527,139.200036 L181.172527,151.965797 L201.442952,151.965797 C201.442952,151.965797 204.21339,146.687214 198.934808,146.687214 C190.833329,146.687214 189.966616,139.200036 189.966616,139.200036 L181.172527,139.200036 Z" id="Fill-72" fill="#DFDFDF"></path>
                <path d="M168.407071,139.200036 L168.407071,151.965797 L155.200352,151.965797 C155.200352,151.965797 154.74951,147.505269 156.181866,147.505269 C159.454845,147.505269 158.978914,139.200036 158.978914,139.200036 L168.407071,139.200036 Z" id="Fill-74" fill="#DFDFDF"></path>
                <path d="M193.95585,150.983523 C193.95585,148.037461 196.345391,146.810379 199.295254,146.810379 C202.243597,146.810379 204.634658,148.037461 204.634658,150.983523 L193.95585,150.983523 Z" id="Fill-76" fill="#DFDFDF"></path>
                <path d="M153.399187,150.983523 C153.399187,148.037461 156.025173,146.810379 159.26394,146.810379 C162.502708,146.810379 165.130214,148.037461 165.130214,150.983523 L153.399187,150.983523 Z" id="Fill-78" fill="#DFDFDF"></path>
                <polygon id="Fill-80" fill="#CED7DB" points="181.172527 151.965568 204.7395 151.965568 204.7395 150.983295 181.172527 150.983295"></polygon>
                <polygon id="Fill-82" fill="#CED7DB" points="153.677219 151.965568 168.406767 151.965568 168.406767 150.983295 153.677219 150.983295"></polygon>
                <polygon id="Fill-83" fill="#747474" points="170.516451 142.326587 156.769177 142.276409 156.988897 81.8863267 170.736171 81.9365048"></polygon>
                <polygon id="Fill-84" fill="#747474" points="179.446173 143.273736 172.095845 82.7399623 185.743523 81.0825651 193.093091 141.617099"></polygon>
                <path d="M170.625703,95.2894247 C170.625703,92.7044932 173.433395,92.5129041 173.734463,95.1928699 C174.075066,98.2795822 179.518627,95.0225685 179.518627,95.0225685 L177.135929,82.4848904 L166.755148,81.973226 L166.073942,95.8740753 L170.625703,95.2894247 Z" id="Fill-85" fill="#747474"></path>
                <polygon id="Fill-86" fill="#FFE082" points="156.624041 83.2284384 186.082377 83.2284384 186.082377 45.9141918 156.624041 45.9141918"></polygon>
                <path d="M146.995019,91.7344596 C145.478273,81.7931171 145.563423,72.0905007 147.239827,63.6765486 C148.785464,55.9217541 151.657779,49.5187267 155.329142,45.6474116 C158.829444,41.9555212 165.193697,38.0195829 172.573677,38.0195829 L172.63906,38.0195829 C178.360882,38.0378295 183.611334,40.4250897 187.823252,44.9236308 C187.938053,45.0467952 199.343684,58.2063774 197.734184,91.4767267 L187.925889,91.0023158 C189.227478,64.107624 181.286416,52.5392952 180.523101,51.495439 C178.204266,49.0785281 175.542547,47.8484048 172.607889,47.8392815 C172.596485,47.8392815 172.584321,47.8392815 172.572916,47.8392815 C168.299416,47.8392815 164.453951,50.2949664 162.45443,52.4032062 C155.170245,60.0865349 155.023512,79.2484801 156.702197,90.2542062 L146.995019,91.7344596 Z" id="Fill-87" fill="#FFE082"></path>
                <path d="M172.825327,53.0156068 C172.825327,53.321237 167.425101,41.4951753 167.425101,41.4951753 L167.425101,24.0210384 C167.425101,20.7708671 169.896752,18.134237 172.825327,18.134237 C175.753903,18.134237 178.226314,20.7708671 178.226314,24.0210384 L178.226314,41.4951753 C178.226314,41.4951753 172.963697,53.1676616 172.825327,53.0156068" id="Fill-88" fill="#F6CFB5"></path>
                <path d="M185.100331,22.1479514 C185.100331,26.9468007 182.62868,31.1632801 178.955036,33.6889103 C176.637721,35.2816842 173.750201,36.202376 170.72431,36.1727253 C162.900331,36.0959377 156.623509,29.69215 156.623509,21.8696911 L156.623509,14.4593007 C156.623509,6.63684178 163.177831,0.359259589 171.00029,0.435286986 C178.82731,0.512074658 185.100331,6.91510205 185.100331,14.7383212 L185.100331,22.1479514 Z" id="Fill-89" fill="#FFDBC2"></path>
                <path d="M174.945047,15.3892678 C174.863698,15.3892678 174.780828,15.3626582 174.713164,15.3071582 C174.629534,15.2387336 172.636855,13.6573637 170.257198,14.8350281 C170.073972,14.9247404 169.853492,14.8502336 169.76378,14.6677678 C169.673308,14.4860623 169.747814,14.2648226 169.93028,14.17435 C172.745575,12.7822884 175.081136,14.6563637 175.179212,14.7369527 C175.335828,14.865439 175.358636,15.0965623 175.23091,15.253939 C175.157924,15.3428911 175.051486,15.3892678 174.945047,15.3892678" id="Fill-90" fill="#E1B562"></path>
            </g>
            <g id="Group-101" transform="translate(156.616438, 16.903932)">
                <g id="Group-94">
                    <mask id="mask-6" fill="white">
                        <use xlink:href="#path-5"></use>
                    </mask>
                    <g id="Clip-93"></g>
                    <path d="M5.08532055,4.11954452 C5.08532055,4.11954452 3.42792329,10.8905445 8.03138219,15.8209212 C10.5410466,18.5084897 7.72651233,21.4104555 6.21052603,23.0838185 C5.32024521,24.0653322 5.60534795,25.0742158 6.87500548,25.2620034 C8.73919726,25.5387432 10.2194507,25.7843116 10.2194507,25.7843116 C8.5833411,27.7686267 6.47662192,32.187339 8.1948411,35.7879966 C9.4477726,38.4117021 -0.724693151,32.0238801 -0.724693151,23.5954829 C-0.724693151,13.9392432 -1.70696712,5.91987329 5.08532055,4.11954452" id="Fill-92" fill="#F6CFB5" mask="url(#mask-6)"></path>
                </g>
                <g id="Group-97">
                    <mask id="mask-8" fill="white">
                        <use xlink:href="#path-7"></use>
                    </mask>
                    <g id="Clip-96"></g>
                    <path d="M0.0274458904,31.6597089 C5.95910342,24.0493664 14.097076,24.5085719 19.971713,29.6738733 C21.3211993,30.8599007 22.5923774,29.8274486 22.5923774,28.0681747 L22.5923774,21.6392979 L24.9233774,21.6392979 L24.9233774,41.2779349 L-0.790608904,41.2779349 L0.0274458904,31.6597089 Z" id="Fill-95" fill="#ECC3A9" mask="url(#mask-8)"></path>
                </g>
                <g id="Group-100">
                    <mask id="mask-10" fill="white">
                        <use xlink:href="#path-9"></use>
                    </mask>
                    <g id="Clip-99"></g>
                    <polygon id="Fill-98" fill="#C49867" mask="url(#mask-10)" points="22.5921493 7.03382671 22.5921493 21.63945 33.3933616 21.63945 33.3933616 6.54268973"></polygon>
                </g>
            </g>
            <g id="Group-114" transform="translate(152.054795, 16.903932)">
                <path d="M36.6057473,20.9805966 C36.5859801,22.9451445 34.9749596,24.5242336 33.0088911,24.5044664 C31.0435829,24.4854596 29.4652541,22.874439 29.4857815,20.9106514 C29.5047884,18.9438226 31.1158089,17.3662541 33.0795966,17.3845007 C35.0456651,17.4050281 36.6247541,19.0137678 36.6057473,20.9805966" id="Fill-102" fill="#FFDBC2"></path>
                <path d="M21.9491096,19.5548548 C21.7940137,19.5548548 21.6495616,19.4560192 21.5986233,19.300163 C21.3751027,18.6121151 20.7410342,18.1437863 20.0210548,18.1361836 L20.005089,18.1361836 C19.2927123,18.1361836 18.6578836,18.5893068 18.4229589,19.2682315 C18.3568151,19.4598205 18.1469795,19.5616973 17.9546301,19.4955534 C17.7622808,19.4294096 17.6604041,19.219574 17.7273082,19.0272247 C18.0648699,18.0510329 18.9787192,17.4002384 20.005089,17.4002384 L20.0278973,17.4002384 C21.0656712,17.4108822 21.978,18.0829644 22.2995959,19.0728411 C22.3619384,19.266711 22.2562603,19.4742658 22.0631507,19.5366082 C22.025137,19.5487726 21.986363,19.5548548 21.9491096,19.5548548" id="Fill-104" fill="#414141"></path>
                <path d="M11.7000082,19.4531301 C11.5449123,19.4531301 11.4004603,19.3542945 11.3502822,19.1984384 C11.1252411,18.5096301 10.4911726,18.0428219 9.77195342,18.0367397 C9.76587123,18.0359795 9.75978904,18.0359795 9.75370685,18.0359795 C9.04133014,18.0359795 8.40802192,18.4883425 8.17385753,19.1672671 C8.1077137,19.3596164 7.89939863,19.4607329 7.70628904,19.3953493 C7.51393973,19.3284452 7.41130274,19.1193699 7.47820685,18.9270205 C7.81424795,17.9508288 8.72657671,17.3000342 9.75294658,17.3000342 C9.76206986,17.3000342 9.77043288,17.3000342 9.77955616,17.3000342 C10.814289,17.3083973 11.7266178,17.9797192 12.0497342,18.9703562 C12.1135973,19.1634658 12.0071589,19.3717808 11.8140493,19.4348836 C11.7760356,19.4470479 11.7380219,19.4531301 11.7000082,19.4531301" id="Fill-106" fill="#414141"></path>
                <path d="M14.9777774,30.7416781 C13.5264144,30.7416781 12.1792089,30.1463836 11.1840103,29.065274 C11.0464007,28.9155 11.055524,28.6828562 11.2052979,28.5452466 C11.3543116,28.407637 11.588476,28.4167603 11.7253253,28.5665342 C12.5798733,29.4940685 13.7347295,30.0049726 14.9777774,30.0049726 C16.2208253,30.0049726 17.3772021,29.4940685 18.2325103,28.5665342 C18.3701199,28.4167603 18.603524,28.4068767 18.7525377,28.5452466 C18.9023116,28.6828562 18.9114349,28.9162603 18.7738253,29.065274 C17.7771062,30.1463836 16.4291404,30.7416781 14.9777774,30.7416781" id="Fill-108" fill="#EF9A9A"></path>
                <path d="M32.1227158,9.85565959 L6.65353767,9.85565959 C-2.79818836,9.85565959 -0.553099315,0.496686986 3.49764041,0.496686986 C3.49764041,0.496686986 4.15147603,2.63381712 7.75821575,1.95717329 C11.3672363,1.28128973 11.7952705,0.173570548 17.6797911,0.173570548 C29.6062089,0.173570548 32.1227158,9.85565959 32.1227158,9.85565959" id="Fill-110" fill="#C49867"></path>
                <path d="M7.23750411,15.6639247 C7.13106575,15.6639247 7.02538767,15.6175479 6.95240137,15.5293562 C6.82391507,15.3719795 6.84672329,15.1400959 7.0041,15.0108493 C7.10217534,14.9310205 9.43849726,13.0577055 12.2522712,14.4482466 C12.434737,14.5387192 12.5092438,14.7599589 12.4195315,14.9416644 C12.3298192,15.1241301 12.1093397,15.1993973 11.9261137,15.1089247 C9.53353151,13.9251781 7.49067534,15.5635685 7.47090822,15.5802945 C7.40248356,15.6365548 7.3196137,15.6639247 7.23750411,15.6639247" id="Fill-112" fill="#E1B562"></path>
            </g>
            <g id="Group-117" transform="translate(167.260274, 35.150507)">
                <mask id="mask-12" fill="white">
                    <use xlink:href="#path-11"></use>
                </mask>
                <g id="Clip-116"></g>
                <polygon id="Fill-115" fill="#AFBDC4" mask="url(#mask-12)" points="16.9002062 21.0678 5.1623363 30.4663068 -6.57553356 21.0678 -10.6369171 21.0678 -10.6369171 54.4544712 21.7682404 54.4544712 21.7682404 21.0678"></polygon>
            </g>
            <g id="Group-123" transform="translate(169.541096, 61.760096)">
                <g id="Group-120">
                    <mask id="mask-14" fill="white">
                        <use xlink:href="#path-13"></use>
                    </mask>
                    <g id="Clip-119"></g>
                    <path d="M3.2847637,2.31389384 L3.2847637,14.0973801" id="Fill-118" fill="#EDEDED" mask="url(#mask-14)"></path>
                </g>
                <mask id="mask-16" fill="white">
                    <use xlink:href="#path-15"></use>
                </mask>
                <g id="Clip-122"></g>
                <polygon id="Fill-121" fill="#8FA3AD" mask="url(#mask-16)" points="2.79324658 14.0977603 3.77552055 14.0977603 3.77552055 2.31427397 2.79324658 2.31427397"></polygon>
            </g>
            <g id="Group-143" transform="translate(6.000000, 16.177904)">
                <path d="M166.400562,60.2982068 C166.333658,60.3027685 166.263713,60.3141726 166.193008,60.3347 L166.362549,60.9307548 L166.440097,60.9011041 L166.400562,60.2982068 Z M166.411206,62.268837 C165.815151,62.268837 165.552857,61.7313233 165.178802,60.9649671 C164.942357,60.4821932 164.615439,59.7903438 164.22846,58.9593644 C163.460583,57.3080493 162.45246,55.1032548 161.451179,52.8969397 C159.450138,48.4888712 157.471145,44.0754808 157.471145,44.0754808 C157.249905,43.5805425 157.471145,42.9996932 157.966083,42.7776932 C158.459501,42.5556932 159.041871,42.7769329 159.26311,43.2718712 C161.523405,48.3140082 164.943117,55.8756932 166.484953,59.1471521 C168.034391,55.9023027 171.438138,48.3102068 173.66574,43.2764329 C173.884699,42.7807342 174.464788,42.5556932 174.960487,42.7754123 C175.456186,42.9951315 175.680466,43.5752205 175.461508,44.0709192 C167.651213,61.7252411 167.329617,62.1213438 166.67046,62.2346247 L166.666658,62.2391863 C166.574665,62.2589534 166.490275,62.268837 166.411206,62.268837 Z" id="Fill-124" fill="#00E5FF"></path>
                <polygon id="Fill-126" fill="#AFBDC4" points="156.850381 47.8262164 161.684963 45.4503603 160.488292 39.2472849 158.847621 39.6380658"></polygon>
                <path d="M159.658909,40.4542959 L158.30182,46.0187411 L160.57884,44.8996178 L159.71821,40.4398507 L159.658909,40.4542959 Z M156.850457,48.8081863 C156.630738,48.8081863 156.413299,48.7344397 156.235395,48.5915082 C155.938128,48.3535425 155.80584,47.9642822 155.896313,47.5940288 L157.893553,39.4058781 C157.980984,39.047789 158.261525,38.7687685 158.619614,38.6828575 L160.260286,38.2920767 C160.520299,38.228974 160.795518,38.2768712 161.02056,38.4220836 C161.245601,38.5672959 161.401457,38.7984192 161.452395,39.0607137 L162.649827,45.263789 C162.733457,45.6986658 162.516018,46.1358233 162.118395,46.3312137 L157.283053,48.7070699 C157.146203,48.7747342 156.99795,48.8081863 156.850457,48.8081863 Z" id="Fill-128" fill="#AFBDC4"></path>
                <polygon id="Fill-130" fill="#AFBDC4" points="175.760219 47.8262164 171.121788 45.4503603 172.122308 39.2472849 173.762979 39.6380658"></polygon>
                <path d="M172.204798,44.9016705 L174.297832,45.9736568 L172.923257,40.4479856 L172.204798,44.9016705 Z M175.760599,48.8079582 C175.607024,48.8079582 175.453449,48.7729856 175.312798,48.6999993 L170.674366,46.3241432 C170.29499,46.1302733 170.084394,45.7136432 170.152818,45.2939719 L171.153339,39.0908966 C171.196675,38.8209993 171.35025,38.581513 171.577572,38.4302185 C171.804134,38.2781637 172.083914,38.2279856 172.35001,38.2918486 L173.991442,38.6833897 C174.349531,38.7685404 174.630072,39.047561 174.717503,39.40565 L176.714743,47.5938007 C176.805216,47.9670952 176.669887,48.3586363 176.368818,48.5966021 C176.191675,48.7364925 175.976517,48.8079582 175.760599,48.8079582 Z" id="Fill-132" fill="#AFBDC4"></path>
                <path d="M140.468682,89.5934637 C139.988949,89.5934637 139.569277,89.2414568 139.497812,88.753361 C139.420264,88.2166075 139.791277,87.7178678 140.328031,87.6395596 L149.782038,86.2604226 C150.317271,86.1836349 150.817531,86.5538884 150.895839,87.0906418 C150.974147,87.6273952 150.602373,88.1253747 150.06638,88.2036829 L140.611613,89.5828199 C140.563716,89.5896623 140.515818,89.5934637 140.468682,89.5934637" id="Fill-134" fill="#00E5FF"></path>
                <path d="M191.948581,89.43335 C191.939458,89.43335 191.931095,89.43335 191.921971,89.43335 L182.370649,89.1786582 C181.828574,89.164213 181.4013,88.7133705 181.415745,88.1712952 C181.43019,87.6292199 181.871149,87.2080281 182.423108,87.2156308 L191.97443,87.4695623 C192.516505,87.4840075 192.943779,87.9356103 192.929334,88.4776856 C192.915649,89.0106377 192.478492,89.43335 191.948581,89.43335" id="Fill-136" fill="#00E5FF"></path>
                <polygon id="Fill-138" fill="#444444" opacity="0.5" points="0.568767123 154.510445 91.6321027 154.510445 91.6321027 152.989897 0.568767123 152.989897"></polygon>
                <polygon id="Fill-140" fill="#444444" opacity="0.5" points="0.568767123 117.377904 91.6321027 117.377904 91.6321027 115.857356 0.568767123 115.857356"></polygon>
                <polygon id="Fill-141" fill="#444444" opacity="0.5" points="0.568767123 40.895863 92.0221233 40.895863 92.0221233 39.3753151 0.568767123 39.3753151"></polygon>
                <polygon id="Fill-142" fill="#444444" opacity="0.5" points="0.568767123 2.10060274 92.0221233 2.10060274 92.0221233 0.580054795 0.568767123 0.580054795"></polygon>
            </g>
        </g>
    </g>
</svg>